Coordinates
version=1
nRows=13
nColumns=34
inDegrees=yes

Units are S.I. units (second, meters, Newtons, ...)
If the header above contains a line with 'inDegrees', this indicates whether rotational values are in degrees (yes) or radians (no).

endheader
time	pelvis_tilt	pelvis_list	pelvis_rotation	pelvis_tx	pelvis_ty	pelvis_tz	hip_flexion_r	hip_adduction_r	hip_rotation_r	knee_angle_r	ankle_angle_r	subtalar_angle_r	mtp_angle_r	hip_flexion_l	hip_adduction_l	hip_rotation_l	knee_angle_l	ankle_angle_l	subtalar_angle_l	mtp_angle_l	lumbar_extension	lumbar_bending	lumbar_rotation	arm_flex_r	arm_add_r	arm_rot_r	elbow_flex_r	pro_sup_r	arm_flex_l	arm_add_l	arm_rot_l	elbow_flex_l	pro_sup_l
      1.25000000	    -30.27825825	      0.64551057	      3.63785202	      0.46875684	      0.69261418	     -0.17061505	    110.11667668	     -6.25114571	      5.18576490	     96.69493698	     16.29532743	    -27.92390070	      0.00000000	    110.26076945	     -1.58762291	      1.30276598	     96.22199470	     17.11206836	    -16.67773804	      0.00000000	    -42.54290982	      0.22607057	     -4.74341196	     79.67956758	    -23.36479647	     24.54030686	     52.07312202	     80.04660223	     83.64275947	    -14.11738188	     30.10172046	     37.72773841	     56.49025915
      1.26666670	    -31.93931455	      0.73625097	      3.33648151	      0.47945301	      0.70188388	     -0.16578335	    110.12834261	     -5.99087244	      4.84554179	     96.00447493	     16.70467536	    -27.63096032	      0.00000000	    109.73938157	     -2.08206845	      1.17932373	     94.80155702	     17.99942723	    -16.48286875	      0.00000000	    -41.78784042	      0.15619323	     -4.77716902	     79.13983610	    -22.99094570	     24.38427711	     53.61470602	     79.92832571	     82.29985325	    -14.44324885	     28.05890503	     40.96653748	     55.21361504
      1.28333330	    -33.12729686	      1.14206614	      2.98506279	      0.46847397	      0.70974714	     -0.16182985	    110.01783315	     -5.56813536	      4.97316481	     94.84747562	     16.97415792	    -26.91409427	      0.00000000	    109.08467820	     -2.67485169	      0.79414805	     93.19849044	     18.67947745	    -16.21426184	      0.00000000	    -41.22375544	     -0.64631034	     -4.85180714	     79.04260575	    -22.66154260	     25.10878636	     53.26225792	     79.99357948	     81.90721231	    -14.22746248	     28.15389407	     41.47814439	     55.05863168
      1.30000000	    -33.91114175	      1.54251682	      2.81384490	      0.48145262	      0.72685491	     -0.15773133	    109.25240749	     -5.30614278	      5.02516969	     93.64784285	     17.25739304	    -26.39628712	      0.00000000	    107.73421711	     -3.20794185	      0.34789063	     91.26891593	     19.10737676	    -15.89475886	      0.00000000	    -41.35665854	     -1.20754422	     -5.17881764	     78.74988011	    -22.03804296	     25.79739567	     53.19638383	     80.09211303	     81.12584970	    -14.95955043	     28.21705275	     42.61513025	     54.78551980
      1.31666670	    -34.22936722	      2.02652746	      2.66576095	      0.49081196	      0.73598265	     -0.16251849	    108.16339126	     -5.37559585	      5.24719381	     92.51698085	     17.65764698	    -25.41773821	      0.00000000	    106.28499562	     -3.64170462	     -0.34879548	     90.06180135	     19.35617266	    -15.89804096	      0.00000000	    -41.52226363	     -1.76613019	     -5.42930701	     77.68649254	    -22.04915315	     26.07986593	     53.47446604	     80.15758959	     79.70805342	    -15.21306029	     28.18171562	     43.62712222	     54.65570687
      1.33333330	    -34.35551815	      2.40446175	      2.55505479	      0.50283835	      0.74617901	     -0.15736437	    107.01255819	     -5.43679298	      5.34786214	     91.75953002	     18.12202568	    -24.86542540	      0.00000000	    104.37834049	     -4.12933697	     -0.86653953	     88.67689358	     19.70775476	    -15.92139905	      0.00000000	    -41.60830874	     -2.35960561	     -5.39265498	     75.92374530	    -22.53095481	     26.36568287	     54.40308908	     80.25562592	     77.69873512	    -15.70062072	     28.27138848	     45.28974222	     54.64354469
      1.35000000	    -34.40166073	      2.57306904	      2.63080577	      0.51076989	      0.76316943	     -0.16160041	    105.38335981	     -5.99483110	      5.21846066	     90.51120264	     18.81257870	    -23.91940934	      0.00000000	    102.58336912	     -4.18002979	     -1.41930061	     87.34959232	     19.01747659	    -16.78758221	      0.00000000	    -41.83632408	     -2.37420624	     -5.43428810	     73.26530866	    -22.65819864	     24.96942151	     55.88658144	     80.34070840	     75.31903591	    -16.31533370	     27.79833293	     47.03994793	     54.61898851
      1.36666670	    -34.22750040	      3.00464658	      2.92436751	      0.52169547	      0.78270392	     -0.16421319	    103.22172983	     -6.75292052	      5.42786193	     88.81867429	     19.30551899	    -23.25558821	      0.00000000	     99.97862010	     -3.96512116	     -2.47569527	     85.30186520	     18.49322713	    -17.70850922	      0.00000000	    -42.52864846	     -2.64239348	     -5.58264330	     71.23598654	    -23.42538082	     24.76638794	     55.95109117	     80.47256776	     73.32864953	    -16.33757322	     27.57615704	     47.51000562	     54.66301492
      1.38333330	    -34.28962150	      3.22015646	      3.42965533	      0.51200432	      0.79361827	     -0.16170813	    101.62225160	     -7.64512639	      5.38605193	     86.83849003	     19.56327539	    -22.27376353	      0.00000000	     98.33604220	     -3.46129757	     -3.22455181	     83.33647911	     17.35870770	    -18.88489457	      0.00000000	    -42.81250624	     -2.61954146	     -5.73960583	     70.05771001	    -24.13989300	     24.63725696	     55.99929461	     80.59328329	     71.89785225	    -16.43367654	     27.62981533	     47.64531348	     54.81322719
      1.40000000	    -34.30971811	      3.09052810	      3.90655458	      0.53423516	      0.80133056	     -0.16189734	     99.92421635	     -8.55491224	      4.85246846	     85.57191672	     20.55610787	    -21.54201937	      0.00000000	     96.73437956	     -3.09207257	     -3.36088624	     81.66457314	     16.48284347	    -19.67145163	      0.00000000	    -42.66512497	     -2.28865852	     -5.94758155	     67.50233844	    -24.81798652	     24.10434722	     57.07408191	     80.83896270	     69.39778884	    -17.12447234	     27.36550939	     48.28380960	     55.20472672
      1.41666670	    -34.12804409	      2.70784542	      4.54793083	      0.54223633	      0.81061421	     -0.15936777	     97.90080732	     -9.41310462	      4.07195861	     84.38324271	     21.55114119	    -21.46827792	      0.00000000	     95.06443211	     -2.70360101	     -3.18288564	     80.28504604	     16.83913243	    -19.04075326	      0.00000000	    -42.24209637	     -1.68562871	     -5.98931738	     63.93080831	    -25.04954220	     22.02662165	     58.98526668	     81.05093641	     66.49664669	    -17.78347375	     26.70335665	     49.14687250	     55.72987092
      1.43333330	    -33.59460830	      2.74022728	      4.59533125	      0.56206273	      0.82252352	     -0.16832359	     95.55527212	    -10.23688565	      3.57114179	     83.28688233	     22.56004957	    -20.74743664	      0.00000000	     92.85015827	     -2.36183931	     -3.24064269	     79.07382291	     17.38943937	    -18.82188155	      0.00000000	    -41.82386783	     -1.37585934	     -5.68409549	     60.25833475	    -25.37351871	     19.91048151	     60.24961743	     81.83988359	     62.71363799	    -17.48427353	     24.51499311	     50.04667628	     56.56524691
      1.45000000	    -33.18406123	      2.55546715	      4.93984787	      0.54714879	      0.85215319	     -0.16412846	     92.70619559	    -11.03204199	      2.83057982	     80.63678419	     22.45013219	    -20.20297669	      0.00000000	     90.69854263	     -1.78848973	     -3.26284475	     76.81059694	     17.06210653	    -18.79489099	      0.00000000	    -42.01952551	     -1.10816515	     -5.66884327	     58.70951946	    -25.20171986	     18.89484429	     59.61061192	     85.77164763	     61.75958620	    -17.35904190	     23.82069013	     49.17368454	     61.50701413
